<mxfile host="Electron" modified="2024-07-06T03:14:33.567Z" agent="Mozilla/5.0 (Windows NT 10.0; Win64; x64) AppleWebKit/537.36 (KHTML, like Gecko) draw.io/21.2.8 Chrome/112.0.5615.165 Electron/24.2.0 Safari/537.36" etag="H-Cy31G1pDxRc8exSijs" version="21.2.8" type="device">
  <diagram name="Página-1" id="3K5V0w9SPyPDYaMEIQHX">
    <mxGraphModel dx="1098" dy="820" grid="1" gridSize="10" guides="1" tooltips="1" connect="1" arrows="1" fold="1" page="1" pageScale="1" pageWidth="827" pageHeight="1169" math="0" shadow="0">
      <root>
        <mxCell id="0" />
        <mxCell id="1" parent="0" />
        <mxCell id="fUnKsEL_MndA9ZmMo3Lu-1" value="" style="rounded=0;whiteSpace=wrap;html=1;" vertex="1" parent="1">
          <mxGeometry x="200" y="80" width="400" height="360" as="geometry" />
        </mxCell>
        <mxCell id="fUnKsEL_MndA9ZmMo3Lu-2" value="" style="rounded=0;whiteSpace=wrap;html=1;" vertex="1" parent="1">
          <mxGeometry x="200" y="80" width="170" height="150" as="geometry" />
        </mxCell>
        <mxCell id="fUnKsEL_MndA9ZmMo3Lu-3" value="Puntos que se pueden atacar" style="shape=umlActor;verticalLabelPosition=bottom;verticalAlign=top;html=1;outlineConnect=0;" vertex="1" parent="1">
          <mxGeometry x="270" y="125" width="30" height="60" as="geometry" />
        </mxCell>
        <mxCell id="fUnKsEL_MndA9ZmMo3Lu-4" value="Detalles Armadura" style="rounded=0;whiteSpace=wrap;html=1;" vertex="1" parent="1">
          <mxGeometry x="370" y="80" width="230" height="150" as="geometry" />
        </mxCell>
        <mxCell id="fUnKsEL_MndA9ZmMo3Lu-5" value="Armamento / Tipo / Rango / Munición / Artesanía / Daño" style="rounded=0;whiteSpace=wrap;html=1;" vertex="1" parent="1">
          <mxGeometry x="200" y="230" width="400" height="210" as="geometry" />
        </mxCell>
      </root>
    </mxGraphModel>
  </diagram>
</mxfile>
